<mxfile host="app.diagrams.net" agent="Mozilla/5.0 (Macintosh; Intel Mac OS X 10_15_7) AppleWebKit/537.36 (KHTML, like Gecko) Chrome/131.0.0.0 Safari/537.36" version="24.7.6">
  <diagram name="페이지-1" id="bUU_sA3XC32wE7ueLT2p">
    <mxGraphModel dx="2132" dy="718" grid="1" gridSize="10" guides="1" tooltips="1" connect="1" arrows="1" fold="1" page="1" pageScale="1" pageWidth="827" pageHeight="1169" math="0" shadow="0">
      <root>
        <mxCell id="0" />
        <mxCell id="1" parent="0" />
        <mxCell id="OYIuJB2tTlGD44dEsqzv-1" value="사용자" style="shape=umlActor;verticalLabelPosition=bottom;verticalAlign=top;html=1;outlineConnect=0;" vertex="1" parent="1">
          <mxGeometry x="175" y="240" width="30" height="60" as="geometry" />
        </mxCell>
        <mxCell id="OYIuJB2tTlGD44dEsqzv-2" value="shopby 서버" style="rounded=0;whiteSpace=wrap;html=1;" vertex="1" parent="1">
          <mxGeometry x="-20" y="100" width="120" height="60" as="geometry" />
        </mxCell>
        <mxCell id="OYIuJB2tTlGD44dEsqzv-3" value="토스 서버" style="rounded=0;whiteSpace=wrap;html=1;" vertex="1" parent="1">
          <mxGeometry x="510" y="240" width="120" height="60" as="geometry" />
        </mxCell>
        <mxCell id="OYIuJB2tTlGD44dEsqzv-4" value="백엔드 서버" style="rounded=0;whiteSpace=wrap;html=1;" vertex="1" parent="1">
          <mxGeometry x="130" y="460" width="120" height="60" as="geometry" />
        </mxCell>
        <mxCell id="OYIuJB2tTlGD44dEsqzv-5" value="" style="endArrow=classic;html=1;rounded=0;" edge="1" parent="1">
          <mxGeometry width="50" height="50" relative="1" as="geometry">
            <mxPoint x="220" y="260" as="sourcePoint" />
            <mxPoint x="450" y="260" as="targetPoint" />
          </mxGeometry>
        </mxCell>
        <mxCell id="OYIuJB2tTlGD44dEsqzv-6" value="&lt;font style=&quot;font-size: 10px;&quot;&gt;1) 토스 서버에 결제수단 등록 및 빌링키 발급 요청&lt;/font&gt;" style="text;html=1;align=center;verticalAlign=middle;resizable=0;points=[];autosize=1;strokeColor=none;fillColor=none;" vertex="1" parent="1">
          <mxGeometry x="220" y="260" width="220" height="30" as="geometry" />
        </mxCell>
        <mxCell id="OYIuJB2tTlGD44dEsqzv-7" value="" style="endArrow=classic;html=1;rounded=0;" edge="1" parent="1">
          <mxGeometry width="50" height="50" relative="1" as="geometry">
            <mxPoint x="190" y="320" as="sourcePoint" />
            <mxPoint x="190" y="460" as="targetPoint" />
          </mxGeometry>
        </mxCell>
        <mxCell id="OYIuJB2tTlGD44dEsqzv-9" value="&lt;font style=&quot;font-size: 10px;&quot;&gt;2) redirect url을 통한 자체 DB에 고객정보 및 빌링키 저장 및 빌링키로 바로 결제&lt;/font&gt;" style="text;html=1;align=center;verticalAlign=middle;resizable=0;points=[];autosize=1;strokeColor=none;fillColor=none;" vertex="1" parent="1">
          <mxGeometry x="200" y="420" width="340" height="30" as="geometry" />
        </mxCell>
        <mxCell id="OYIuJB2tTlGD44dEsqzv-10" value="" style="endArrow=classic;html=1;rounded=0;exitX=0;exitY=0.5;exitDx=0;exitDy=0;" edge="1" parent="1" source="OYIuJB2tTlGD44dEsqzv-4">
          <mxGeometry width="50" height="50" relative="1" as="geometry">
            <mxPoint x="60" y="280" as="sourcePoint" />
            <mxPoint x="40" y="160" as="targetPoint" />
            <Array as="points">
              <mxPoint x="40" y="490" />
            </Array>
          </mxGeometry>
        </mxCell>
        <mxCell id="OYIuJB2tTlGD44dEsqzv-11" value="&lt;span style=&quot;font-size: 10px;&quot;&gt;3) 회원 등급 업데이트&lt;/span&gt;" style="text;html=1;align=center;verticalAlign=middle;resizable=0;points=[];autosize=1;strokeColor=none;fillColor=none;" vertex="1" parent="1">
          <mxGeometry x="-70" y="390" width="110" height="30" as="geometry" />
        </mxCell>
        <mxCell id="OYIuJB2tTlGD44dEsqzv-12" value="배치 서버" style="rounded=0;whiteSpace=wrap;html=1;" vertex="1" parent="1">
          <mxGeometry x="-10" y="585" width="120" height="60" as="geometry" />
        </mxCell>
        <mxCell id="OYIuJB2tTlGD44dEsqzv-13" value="" style="endArrow=classic;html=1;rounded=0;" edge="1" parent="1" target="OYIuJB2tTlGD44dEsqzv-14">
          <mxGeometry width="50" height="50" relative="1" as="geometry">
            <mxPoint x="189.7" y="520" as="sourcePoint" />
            <mxPoint x="190" y="590" as="targetPoint" />
          </mxGeometry>
        </mxCell>
        <mxCell id="OYIuJB2tTlGD44dEsqzv-14" value="DB" style="shape=cylinder3;whiteSpace=wrap;html=1;boundedLbl=1;backgroundOutline=1;size=15;" vertex="1" parent="1">
          <mxGeometry x="160" y="575" width="60" height="80" as="geometry" />
        </mxCell>
        <mxCell id="OYIuJB2tTlGD44dEsqzv-15" value="" style="curved=1;endArrow=classic;html=1;rounded=0;" edge="1" parent="1">
          <mxGeometry width="50" height="50" relative="1" as="geometry">
            <mxPoint x="130" y="635" as="sourcePoint" />
            <mxPoint x="120" y="610" as="targetPoint" />
            <Array as="points">
              <mxPoint x="160" y="635" />
              <mxPoint x="150" y="600" />
              <mxPoint x="110" y="585" />
            </Array>
          </mxGeometry>
        </mxCell>
        <mxCell id="OYIuJB2tTlGD44dEsqzv-21" value="" style="endArrow=classic;html=1;rounded=0;exitX=0.5;exitY=1;exitDx=0;exitDy=0;entryX=0.5;entryY=1;entryDx=0;entryDy=0;" edge="1" parent="1" source="OYIuJB2tTlGD44dEsqzv-12" target="OYIuJB2tTlGD44dEsqzv-3">
          <mxGeometry width="50" height="50" relative="1" as="geometry">
            <mxPoint x="140" y="500" as="sourcePoint" />
            <mxPoint x="50" y="170" as="targetPoint" />
            <Array as="points">
              <mxPoint x="50" y="720" />
              <mxPoint x="570" y="720" />
            </Array>
          </mxGeometry>
        </mxCell>
        <mxCell id="OYIuJB2tTlGD44dEsqzv-22" value="&lt;span style=&quot;font-size: 10px;&quot;&gt;4) 배치 수행을 통한 정기 결제&lt;/span&gt;" style="text;html=1;align=center;verticalAlign=middle;resizable=0;points=[];autosize=1;strokeColor=none;fillColor=none;" vertex="1" parent="1">
          <mxGeometry x="50" y="730" width="140" height="30" as="geometry" />
        </mxCell>
        <mxCell id="OYIuJB2tTlGD44dEsqzv-23" value="&lt;font color=&quot;#ff3333&quot; style=&quot;font-size: 10px;&quot;&gt;1) 빌링키 파기&lt;/font&gt;" style="text;html=1;align=center;verticalAlign=middle;resizable=0;points=[];autosize=1;strokeColor=none;fillColor=none;" vertex="1" parent="1">
          <mxGeometry x="250" y="310" width="80" height="30" as="geometry" />
        </mxCell>
        <mxCell id="OYIuJB2tTlGD44dEsqzv-24" value="" style="endArrow=classic;html=1;rounded=0;fillColor=#B3FF66;strokeColor=#FF3333;" edge="1" parent="1">
          <mxGeometry width="50" height="50" relative="1" as="geometry">
            <mxPoint x="230" y="340" as="sourcePoint" />
            <mxPoint x="450" y="340" as="targetPoint" />
          </mxGeometry>
        </mxCell>
        <mxCell id="OYIuJB2tTlGD44dEsqzv-32" value="" style="endArrow=classic;html=1;rounded=0;fillColor=#B3FF66;strokeColor=#FF3333;" edge="1" parent="1">
          <mxGeometry width="50" height="50" relative="1" as="geometry">
            <mxPoint x="230" y="340" as="sourcePoint" />
            <mxPoint x="230" y="410" as="targetPoint" />
          </mxGeometry>
        </mxCell>
        <mxCell id="OYIuJB2tTlGD44dEsqzv-33" value="&lt;font color=&quot;#ff3333&quot; style=&quot;font-size: 10px;&quot;&gt;2) 백엔드 서버를 통해서 빌링키 데이터 제거&lt;/font&gt;" style="text;html=1;align=center;verticalAlign=middle;resizable=0;points=[];autosize=1;strokeColor=none;fillColor=none;" vertex="1" parent="1">
          <mxGeometry x="220" y="360" width="200" height="30" as="geometry" />
        </mxCell>
      </root>
    </mxGraphModel>
  </diagram>
</mxfile>
